<svg width="50" height="50" viewBox="0 0 50 50" fill="none" xmlns="http://www.w3.org/2000/svg">
<circle cx="25" cy="25" r="24.5" fill="#F9FBFF" stroke="#091941"/>
<path fill-rule="evenodd" clip-rule="evenodd" d="M21.9372 32.588L24.7023 35.3786C25.0348 35.7142 25.0348 36.2615 24.7023 36.597L23.5615 37.7483C23.229 38.0839 22.6867 38.0839 22.3542 37.7483L18.9402 34.3028L21.5662 32.7727C21.6895 32.7102 21.8132 32.6486 21.9372 32.588ZM38.5287 22.0135C38.8869 22.131 39.0828 22.5193 38.9664 22.8808C38.8499 23.2422 38.4652 23.44 38.107 23.3225L35.6235 22.5081C35.2654 22.3906 35.0695 22.0023 35.1859 21.6408C35.3023 21.2794 35.6871 21.0816 36.0453 21.1992L38.5287 22.0135ZM35.7162 18.3267C35.3895 18.5171 34.9718 18.4041 34.7833 18.0744C34.5947 17.7448 34.7066 17.3232 35.0333 17.1329L37.2765 15.8258C37.6031 15.6355 38.0208 15.7485 38.2094 16.0781C38.398 16.4078 38.286 16.8293 37.9594 17.0197L35.7162 18.3267ZM31.9417 12.5454C32.0199 12.1736 32.382 11.9362 32.7504 12.0151C33.1188 12.0941 33.3541 12.4595 33.2759 12.8313L32.7329 15.4091C32.6547 15.7809 32.2926 16.0183 31.9242 15.9393C31.5558 15.8604 31.3206 15.495 31.3988 15.1232L31.9417 12.5454ZM24.8032 13.3358C24.1508 13.7159 23.9251 14.5657 24.3018 15.2241L31.7882 28.3105C32.1649 28.969 33.0069 29.1966 33.6594 28.8165C34.3118 28.4364 34.5374 27.5865 34.1607 26.9281L31.6139 22.4762L31.9467 22.2822C33.107 21.6062 33.5082 20.095 32.8384 18.924C32.1685 17.753 30.671 17.3481 29.5108 18.0241L29.1779 18.2181L26.6743 13.8417C26.2976 13.1834 25.4556 12.9557 24.8032 13.3358ZM12.0879 31.0147L12.6845 32.0576C13.6989 33.8307 15.9662 34.4438 17.7232 33.4201L20.3286 31.902L15.4468 23.3687L12.8414 24.8868C11.0845 25.9105 10.477 28.1987 11.4913 29.9718L12.0879 31.0147ZM16.6015 22.642C19.428 20.6829 21.604 18.5036 23.2919 16.2158L30.389 28.6218C27.5819 28.9531 24.6238 29.7653 21.5294 31.2561L16.6015 22.642Z" fill="#091941"/>
</svg>
