<svg width="22" height="18" viewBox="0 0 22 18" fill="none" xmlns="http://www.w3.org/2000/svg">
<path d="M22 2.8566C22 1.74027 21.0918 0.832031 19.9754 0.832031H2.02457C0.908449 0.832074 0.00038672 1.73988 0 2.85694V2.85729V15.2839C0 16.4142 0.917472 17.3091 2.02525 17.3091H19.9747C21.105 17.3091 22 16.3917 22 15.2839V2.85729C22 2.8572 22 2.85711 22 2.85703C22 2.8569 22 2.85677 22 2.8566ZM2.02457 2.12114H19.9754C20.381 2.12114 20.7109 2.4511 20.7109 2.85767C20.7109 3.07372 20.6036 3.27426 20.4235 3.39422L11.4084 9.40455C11.1604 9.56993 10.8397 9.56998 10.5916 9.40455C10.5916 9.40455 1.57631 3.3941 1.57649 3.39422C1.57653 3.39427 1.57636 3.39414 1.57631 3.3941C1.39645 3.27426 1.28907 3.07372 1.28907 2.8566C1.28907 2.45106 1.61903 2.12114 2.02457 2.12114ZM19.9747 16.02H2.02525C1.62397 16.02 1.28907 15.6956 1.28907 15.2839V4.75191L9.87653 10.477C10.2178 10.7046 10.6089 10.8183 11 10.8183C11.3911 10.8183 11.7823 10.7046 12.1235 10.477L20.7109 4.75191V15.2839C20.7109 15.6851 20.3865 16.02 19.9747 16.02Z" fill="#091941"/>
</svg>
