<svg width="50" height="50" viewBox="0 0 50 50" fill="none" xmlns="http://www.w3.org/2000/svg">
<circle cx="25" cy="25" r="24.5" fill="#F9FBFF" stroke="#091941"/>
<path d="M35.9137 29.066C34.3219 29.066 32.7589 28.8171 31.2778 28.3276C30.552 28.0801 29.6598 28.3071 29.2169 28.7621L26.2935 30.969C22.9031 29.1592 20.8147 27.0715 19.0297 23.7066L21.1716 20.8593C21.7281 20.3035 21.9277 19.4917 21.6886 18.73C21.197 17.2411 20.9473 15.6789 20.9473 14.0864C20.9474 12.9359 20.0114 12 18.8611 12H14.0863C12.9359 12 12 12.9359 12 14.0863C12 27.2725 22.7275 38 35.9137 38C37.0641 38 38 37.0641 38 35.9137V31.1523C37.9999 30.002 37.064 29.066 35.9137 29.066Z" fill="#091941"/>
</svg>
