<svg width="24" height="18" viewBox="0 0 24 18" fill="none" xmlns="http://www.w3.org/2000/svg">
<path d="M24 2.21169C24 0.992179 23.0092 0 21.7914 0H2.20862C0.991035 4.69404e-05 0.000421877 0.991757 0 2.21207V2.21244V15.7876C0 17.0223 1.00088 18 2.20937 18H21.7906C23.0236 18 24 16.9978 24 15.7876V2.21244C24 2.21235 24 2.21225 24 2.21216C24 2.21202 24 2.21188 24 2.21169ZM2.20862 1.40826H21.7914C22.2338 1.40826 22.5937 1.76871 22.5937 2.21286C22.5937 2.44888 22.4766 2.66795 22.2802 2.79901L12.4455 9.36484C12.1749 9.54552 11.8252 9.54556 11.5545 9.36484C11.5545 9.36484 1.71962 2.79887 1.7198 2.79901C1.71985 2.79906 1.71966 2.79892 1.71962 2.79887C1.5234 2.66795 1.40626 2.44888 1.40626 2.21169C1.40626 1.76867 1.76621 1.40826 2.20862 1.40826ZM21.7906 16.5918H2.20937C1.7716 16.5918 1.40626 16.2373 1.40626 15.7876V4.28219L10.7744 10.5365C11.1467 10.785 11.5733 10.9093 12 10.9093C12.4267 10.9093 12.8534 10.785 13.2256 10.5365L22.5937 4.28219V15.7876C22.5937 16.2259 22.2398 16.5918 21.7906 16.5918Z" fill="white"/>
</svg>
