<svg width="50" height="50" viewBox="0 0 50 50" fill="none" xmlns="http://www.w3.org/2000/svg">
<circle cx="25" cy="25" r="24.5" fill="#F9FBFF" stroke="#091941"/>
<path d="M27.142 28.3099C26.4112 28.7971 25.5623 29.0547 24.6871 29.0547C23.8119 29.0547 22.9631 28.7971 22.2323 28.3099L10.1956 20.2852C10.1288 20.2407 10.0637 20.1943 10 20.1465V33.2959C10 34.8035 11.2234 36 12.7041 36H36.67C38.1776 36 39.3741 34.7765 39.3741 33.2959V20.1465C39.3103 20.1943 39.2451 20.2409 39.1781 20.2854L27.142 28.3099Z" fill="#091941"/>
<path d="M11.1503 18.8532L23.187 26.8779C23.6426 27.1817 24.1648 27.3336 24.687 27.3336C25.2093 27.3336 25.7315 27.1817 26.1872 26.8779L38.2239 18.8532C38.9442 18.3733 39.3742 17.5701 39.3742 16.7032C39.3742 15.2126 38.1615 14 36.671 14H12.7032C11.2127 14.0001 10 15.2127 10 16.7046C10 17.5701 10.4301 18.3733 11.1503 18.8532Z" fill="#091941"/>
</svg>
