<svg width="21" height="15" viewBox="0 0 21 15" fill="none" xmlns="http://www.w3.org/2000/svg">
<g clip-path="url(#clip0_795_209)">
<path d="M0.292899 6.8801C-0.0976006 7.27063 -0.0976005 7.90379 0.2929 8.29432L6.6569 14.6583C7.0474 15.0488 7.6805 15.0488 8.0711 14.6583C8.4616 14.2678 8.4616 13.6346 8.0711 13.2441L2.4142 7.58721L8.0711 1.93035C8.4616 1.53985 8.4616 0.906653 8.0711 0.516153C7.6805 0.125653 7.0474 0.125653 6.6569 0.516153L0.292899 6.8801ZM21 7.58721L21 6.58721L0.999999 6.58721L0.999999 7.58721L0.999999 8.58721L21 8.58721L21 7.58721Z" fill="#091941"/>
</g>
<defs>
<clipPath id="clip0_795_209">
<rect width="21" height="15" fill="white" transform="translate(21 15) rotate(180)"/>
</clipPath>
</defs>
</svg>
