<svg width="18" height="18" viewBox="0 0 18 18" fill="none" xmlns="http://www.w3.org/2000/svg">
<path d="M17.9954 18V17.9993H17.9999V11.3978C17.9999 8.16837 17.3046 5.68054 13.5291 5.68054C11.714 5.68054 10.4961 6.67662 9.99887 7.62072H9.94645V5.98204H6.3667V17.9993H10.0943V12.0487C10.0943 10.482 10.3913 8.96689 12.3314 8.96689C14.2433 8.96689 14.2716 10.755 14.2716 12.1491V18H17.9954Z" fill="white"/>
<path d="M0.296875 5.98279H4.02895V18H0.296875V5.98279Z" fill="white"/>
<path d="M2.16157 0C0.968175 0 0 0.968175 0 2.16158C0 3.35497 0.968175 4.3434 2.16157 4.3434C3.35497 4.3434 4.32315 3.35497 4.32315 2.16158C4.32225 0.968175 3.35407 0 2.16157 0Z" fill="white"/>
</svg>
