<svg width="50" height="50" viewBox="0 0 50 50" fill="none" xmlns="http://www.w3.org/2000/svg">
<circle cx="25" cy="25" r="24.5" fill="#F9FBFF" stroke="#091941"/>
<path d="M24.5 12C19.2623 12 15 16.4048 15 21.8204C15 29.5153 23.607 37.4605 23.9733 37.7942C24.1242 37.9318 24.3121 38 24.5 38C24.6879 38 24.8758 37.9318 25.0267 37.7953C25.393 37.4605 34 29.5153 34 21.8204C34 16.4048 29.7377 12 24.5 12ZM24.5 27.1667C21.5898 27.1667 19.2222 24.7368 19.2222 21.75C19.2222 18.7633 21.5898 16.3333 24.5 16.3333C27.4102 16.3333 29.7778 18.7633 29.7778 21.75C29.7778 24.7368 27.4102 27.1667 24.5 27.1667Z" fill="#091941"/>
</svg>
