<svg width="16" height="18" viewBox="0 0 16 18" fill="none" xmlns="http://www.w3.org/2000/svg">
<path d="M4.91005 17.5183C5.42247 17.0518 5.58799 16.1502 5.77103 15.5151C5.94017 14.9278 6.3427 13.289 6.42198 12.7012C7.01813 13.9172 8.48249 14.0613 9.71791 13.9928C11.5592 13.891 13.445 12.5349 14.1742 10.8699C14.8312 9.36914 15.3047 7.54202 15.1414 5.89656C15.0154 4.62748 14.3931 3.07132 13.4617 2.15832C12.7526 1.46341 11.8215 0.91539 10.97 0.501729C9.90791 -0.0140249 8.44967 -0.0546399 7.31662 0.0410556C6.62506 0.0994744 5.97411 0.201012 5.30952 0.431348C4.72116 0.635536 4.19762 1.00135 3.6329 1.28426C3.10268 1.54993 2.64479 1.8117 2.26646 2.22147C1.86115 2.65961 1.45917 3.18871 1.09531 3.65634C0.663285 4.21215 0.482187 4.89065 0.224031 5.57164C-0.00519277 6.17753 -0.050815 6.95811 0.0521132 7.62325C0.233768 8.79524 0.615158 9.83566 1.50424 10.6552C1.81497 10.9417 2.45062 11.6461 2.86873 11.2886C3.2835 10.9342 3.30965 9.94276 3.07737 9.52631C2.827 9.07649 2.37078 8.72208 2.31153 8.18463C2.13794 6.61122 2.63227 4.9129 3.64041 3.69362C5.30952 1.67595 8.78349 1.33378 10.8649 2.88355C11.7361 3.53227 12.2942 4.52205 12.3957 5.60447C12.4989 6.70691 12.5604 8.04025 12.1167 9.07649C11.8263 9.75526 11.4262 10.4474 10.9825 11.0382C10.5283 11.6436 9.7602 12.0558 9.00298 12.0609C7.95951 12.0673 7.68939 11.3965 7.04595 10.7423C7.24569 10.347 7.34389 9.67236 7.43291 9.22087C7.55865 8.58104 7.73195 8.06279 7.95255 7.45662C8.26106 6.60983 8.42157 5.31766 7.58952 4.714C6.67402 4.04942 5.32872 4.7254 4.80823 5.6028C4.48971 6.14025 4.47831 6.80177 4.49305 7.40822C4.5078 7.99157 4.70614 8.56324 4.67916 9.1491C4.65329 9.71715 4.40876 10.2482 4.32252 10.8068C4.21876 11.48 4.11222 12.1257 3.93501 12.7847C3.60564 14.0081 2.7288 16.5132 3.13913 17.5937C3.45208 18.4196 4.63103 17.7723 4.91005 17.5183Z" fill="white"/>
</svg>
