<svg width="20" height="18" viewBox="0 0 20 18" fill="none" xmlns="http://www.w3.org/2000/svg">
<path d="M16.0604 3.10345H3.80175C3.5875 3.10345 3.41382 2.92977 3.41382 2.71552V1.7069C3.41382 0.764185 4.178 0 5.12072 0H14.7414C15.6841 0 16.4483 0.764185 16.4483 1.7069V2.71552C16.4483 2.92977 16.2746 3.10345 16.0604 3.10345Z" fill="white"/>
<path d="M17.7672 4.34485H2.09483C0.939724 4.34485 0 5.28457 0 6.43968V13.7328C0 14.8879 0.939724 15.8276 2.09483 15.8276H3.41379V12.7242C3.41379 11.184 4.66677 9.93106 6.2069 9.93106H13.6552C15.1953 9.93106 16.4483 11.184 16.4483 12.7242V15.8276H17.7672C18.9223 15.8276 19.8621 14.8879 19.8621 13.7328V6.43968C19.8621 5.28457 18.9223 4.34485 17.7672 4.34485ZM3.72491 9.00002C3.21071 9.00002 2.79369 8.58319 2.79369 8.06899C2.79369 7.55478 3.21032 7.13795 3.72453 7.13795H3.72491C4.23912 7.13795 4.65595 7.55478 4.65595 8.06899C4.65595 8.58319 4.23912 9.00002 3.72491 9.00002Z" fill="white"/>
<path d="M13.6552 11.7931H6.20691C5.69271 11.7931 5.27588 12.2099 5.27588 12.7241V15.8276V17.069C5.27588 17.5832 5.69271 18 6.20691 18H13.6552C14.1694 18 14.5862 17.5832 14.5862 17.069V15.8276V12.7241C14.5862 12.2099 14.1694 11.7931 13.6552 11.7931Z" fill="white"/>
</svg>
