<svg width="19" height="18" viewBox="0 0 19 18" fill="none" xmlns="http://www.w3.org/2000/svg">
<path d="M16.8822 6.89322C16.2822 6.89322 15.7541 7.14287 15.3654 7.53183C13.9364 6.53948 12.0095 5.90087 9.87441 5.83278L10.9835 0.819391L14.5152 1.61452C14.5152 2.48165 15.2197 3.18991 16.0842 3.18991C16.9654 3.18991 17.6739 2.46287 17.6739 1.59496C17.6739 0.727044 16.9701 0 16.085 0C15.4683 0 14.9363 0.373304 14.6711 0.883565L10.7706 0.0164348C10.5742 -0.036 10.3819 0.10487 10.3296 0.302087L9.11204 5.82887C6.99354 5.9173 5.08721 6.55513 3.65351 7.54826C3.2648 7.14287 2.71617 6.89322 2.11609 6.89322C-0.110071 6.89322 -0.839195 9.88983 1.19934 10.9143C1.1273 11.2312 1.09484 11.5693 1.09484 11.9066C1.09484 15.2726 4.87505 18 9.51658 18C14.1779 18 17.9581 15.2726 17.9581 11.9066C17.9581 11.5693 17.9225 11.2156 17.8346 10.8978C19.832 9.86948 19.0965 6.89478 16.8822 6.89322ZM4.43409 11.1271C4.43409 10.2436 5.13867 9.53217 6.02375 9.53217C6.88825 9.53217 7.59363 10.2389 7.59363 11.1271C7.59363 11.995 6.88904 12.7025 6.02375 12.7025C5.14263 12.7064 4.43409 11.995 4.43409 11.1271ZM13.015 14.8821C11.5575 16.344 7.44479 16.344 5.98654 14.8821C5.82584 14.7412 5.82584 14.4923 5.98654 14.3319C6.12667 14.191 6.37525 14.191 6.51538 14.3319C7.62846 15.4769 11.3208 15.4964 12.4822 14.3319C12.6223 14.191 12.8709 14.191 13.011 14.3319C13.1749 14.4931 13.1749 14.742 13.015 14.8821ZM12.9825 12.7057C12.118 12.7057 11.4134 11.999 11.4134 11.1318C11.4134 10.2483 12.118 9.53687 12.9825 9.53687C13.8636 9.53687 14.5722 10.2436 14.5722 11.1318C14.5682 11.995 13.8636 12.7057 12.9825 12.7057Z" fill="white"/>
</svg>
