<svg width="26" height="25" viewBox="0 0 26 25" fill="none" xmlns="http://www.w3.org/2000/svg">
<path d="M11.017 20.014C13.2416 20.0141 15.4026 19.2983 17.1576 17.9802L23.7789 24.3649C24.2735 24.8256 25.0617 24.8124 25.5394 24.3354C26.0054 23.8701 26.0054 23.1325 25.5394 22.6673L18.9181 16.2826C22.3102 12.072 21.5203 6.00712 17.1538 2.73621C12.7873 -0.534695 6.49784 0.226986 3.10579 4.43753C-0.286264 8.64807 0.503627 14.713 4.87011 17.9839C6.62802 19.3007 8.79093 20.0151 11.017 20.014ZM5.69689 5.23108C8.63514 2.39773 13.399 2.39768 16.3373 5.23098C19.2756 8.06429 19.2756 12.658 16.3374 15.4913C13.3991 18.3247 8.6353 18.3247 5.697 15.4914C5.69695 15.4914 5.69695 15.4914 5.69689 15.4913C2.75865 12.6787 2.74134 8.10173 5.65817 5.26842C5.67106 5.25594 5.68395 5.24351 5.69689 5.23108Z" fill="#091842"/>
</svg>
