<svg width="50" height="50" viewBox="0 0 50 50" fill="none" xmlns="http://www.w3.org/2000/svg">
<circle cx="25" cy="25" r="24.5" fill="#F9FBFF" stroke="#091941"/>
<g clip-path="url(#clip0_724_705)">
<path fill-rule="evenodd" clip-rule="evenodd" d="M18.5604 28.7314C21.4214 28.7314 23.7411 26.4117 23.7411 23.5507C23.7411 23.4309 23.7366 23.3125 23.7289 23.1947C22.3858 22.237 21.4346 20.7664 21.1599 19.0687C20.3957 18.6244 19.508 18.37 18.5604 18.37C15.6994 18.37 13.3797 20.6897 13.3797 23.5507C13.3797 26.4117 15.6994 28.7314 18.5604 28.7314ZM15.3704 22.5112C15.4013 22.4157 15.48 22.3507 15.5796 22.3386L17.5057 22.0963L18.3314 20.3393C18.3741 20.2484 18.4599 20.1941 18.5604 20.1941C18.661 20.1941 18.7468 20.2484 18.7895 20.3393L19.6152 22.0963L21.5413 22.3386C21.6408 22.3512 21.7195 22.4157 21.7505 22.5112C21.7815 22.6067 21.7561 22.7052 21.683 22.7738L20.2667 24.1017L20.6318 26.0085C20.6506 26.107 20.613 26.202 20.5323 26.2609C20.451 26.3198 20.3495 26.3264 20.2616 26.2777L18.5609 25.3413L16.8603 26.2777C16.7724 26.3259 16.6709 26.3198 16.5896 26.2609C16.5084 26.202 16.4708 26.107 16.4896 26.0085L16.8547 24.1017L15.4384 22.7738C15.3653 22.7052 15.3399 22.6067 15.3709 22.5112H15.3704ZM27.3867 23.5507C30.4138 23.5507 32.8828 21.0817 32.8828 18.0546C32.8828 15.0276 30.4138 12.5586 27.3867 12.5586C24.3596 12.5586 21.8907 15.0276 21.8907 18.0546C21.8907 21.0817 24.3596 23.5507 27.3867 23.5507ZM27.4979 14.9951C27.8727 14.5487 29.2443 14.1044 28.7949 17.4082H29.3753C30.6956 17.3747 30.7449 17.6586 30.8236 18.1877C30.8957 18.6711 30.5519 20.6359 30.1893 21.0137C29.7023 21.5007 27.7874 21.4666 27.1089 21.3432C26.6555 21.2605 26.4275 21.1183 25.9019 21.0868L25.8963 17.688C27.4634 17.4529 26.4661 16.224 27.4979 14.9956V14.9951ZM23.9402 17.7429C23.9402 17.5915 24.0641 17.4681 24.2149 17.4681H25.0239C25.1752 17.4681 25.2986 17.592 25.2986 17.7429V21.0863C25.2986 21.2376 25.1747 21.361 25.0239 21.361H24.2149C24.0636 21.361 23.9402 21.2371 23.9402 21.0863V17.7429ZM30.5727 28.606H35.3817V22.662H31.695C30.5671 23.7168 29.0523 24.3632 27.3867 24.3632V28.606H29.0529V30.4722L30.5727 28.606ZM33.5104 25.0127C33.8537 25.0127 34.1315 25.291 34.1315 25.6338C34.1315 25.9765 33.8532 26.2548 33.5104 26.2548C33.1677 26.2548 32.8894 25.9765 32.8894 25.6338C32.8894 25.291 33.1677 25.0127 33.5104 25.0127ZM31.3847 25.0127C31.728 25.0127 32.0058 25.291 32.0058 25.6338C32.0058 25.9765 31.7275 26.2548 31.3847 26.2548C31.042 26.2548 30.7637 25.9765 30.7637 25.6338C30.7637 25.291 31.042 25.0127 31.3847 25.0127ZM28.6375 25.6338C28.6375 25.2905 28.9157 25.0127 29.2585 25.0127C29.6013 25.0127 29.8796 25.291 29.8796 25.6338C29.8796 25.9765 29.6013 26.2548 29.2585 26.2548C28.9157 26.2548 28.6375 25.9765 28.6375 25.6338ZM37.4409 31.0983C36.7493 32.0413 34.4753 33.3413 33.3977 33.9289C27.9169 36.9168 25.0366 38.4601 17.979 36.6944C17.6814 36.6203 17.2787 36.5411 16.6622 36.4827V30.1898C19.3521 29.4698 20.3342 29.9248 21.8556 30.2208C23.341 30.5098 25.0157 30.5458 26.5239 30.56C27.6975 30.5712 28.2287 31.0216 28.2774 31.6828C28.3038 32.0413 28.2048 32.3384 28.0123 32.5842C27.8534 32.7721 27.6173 32.9249 27.3309 33.0483C26.7387 33.3037 25.9506 33.4332 25.1584 33.4916C24.0722 33.5719 22.983 33.5175 22.3573 33.4698C22.1583 33.4551 21.9846 33.6044 21.9699 33.8034C21.9552 34.0025 22.1045 34.1762 22.3035 34.1909C22.9505 34.2407 24.0778 34.2965 25.2092 34.2127C26.073 34.1488 26.9419 34.0035 27.6162 33.7125C28.3404 33.4002 28.8507 32.9234 28.9421 32.2104L34.7891 29.8623C36.0977 29.3393 37.477 29.6851 37.4404 31.0988L37.4409 31.0983ZM15.8497 29.9298V36.6533C15.8497 36.9895 15.5745 37.2647 15.2383 37.2647H13.17C12.8338 37.2647 12.5586 36.9895 12.5586 36.6533V29.9298C12.5586 29.5937 12.8338 29.3184 13.17 29.3184H15.2388C15.575 29.3184 15.8502 29.5937 15.8502 29.9298H15.8497Z" fill="#091941"/>
</g>
<defs>
<clipPath id="clip0_724_705">
<rect width="26" height="26" fill="white" transform="translate(12 12)"/>
</clipPath>
</defs>
</svg>
