<svg width="395" height="147" viewBox="0 0 395 147" fill="none" xmlns="http://www.w3.org/2000/svg">
<path d="M332.612 70.2764L314.227 79.4498L314.543 75.7366L327.381 62.1837L332.612 70.2764Z" fill="#0F2F7E"/>
<path d="M315.441 54.234L357.505 93.3689C357.96 93.7927 358.514 94.0963 359.117 94.2523C359.719 94.4082 360.351 94.4117 360.955 94.2623C361.559 94.1128 362.116 93.8153 362.576 93.3965C363.037 92.9777 363.385 92.4508 363.591 91.8635L393.981 4.98167C394.206 4.33942 394.251 3.64813 394.112 2.98203C393.974 2.31593 393.656 1.70018 393.194 1.20091C392.732 0.701648 392.142 0.337726 391.489 0.148218C390.835 -0.0412901 390.143 -0.0492207 389.485 0.125278L293.202 25.7134C292.555 25.8856 291.966 26.228 291.497 26.7051C291.027 27.1821 290.694 27.7763 290.531 28.4259C290.369 29.0754 290.384 29.7566 290.575 30.3984C290.765 31.0402 291.124 31.6193 291.614 32.0753L315.441 54.234Z" fill="#0F2F7E"/>
<path d="M381.537 12L327.728 64.7884L314.948 78.7881C314.741 79.0093 314.467 79.1577 314.168 79.2111C313.87 79.2645 313.562 79.22 313.29 79.0843C313.019 78.9487 312.799 78.729 312.662 78.458C312.526 78.1871 312.48 77.8793 312.533 77.5805L316.119 53.9969L381.537 12Z" fill="#091941"/>
<path d="M0.603125 146.512C0.52944 146.512 0.456362 146.498 0.387777 146.471C0.238406 146.414 0.117848 146.3 0.0525686 146.154C-0.012711 146.008 -0.0173755 145.842 0.0395983 145.692C0.262997 145.113 0.492432 144.527 0.72388 143.956C0.78668 143.811 0.903388 143.697 1.04912 143.638C1.19486 143.578 1.3581 143.578 1.50404 143.637C1.64998 143.696 1.76708 143.81 1.83038 143.954C1.89368 144.098 1.89816 144.261 1.84289 144.408C1.61546 144.974 1.38804 145.552 1.16867 146.125C1.12463 146.239 1.04698 146.337 0.945992 146.406C0.845002 146.475 0.725437 146.512 0.603125 146.512ZM133.767 146.051H133.728C132.901 145.998 132.06 145.914 131.227 145.797C131.07 145.772 130.93 145.687 130.836 145.56C130.742 145.432 130.702 145.273 130.724 145.116C130.746 144.96 130.829 144.818 130.955 144.722C131.08 144.625 131.239 144.582 131.396 144.602C132.201 144.714 133.006 144.803 133.811 144.845C133.89 144.848 133.968 144.866 134.041 144.898C134.113 144.931 134.178 144.977 134.233 145.035C134.287 145.093 134.329 145.16 134.358 145.235C134.386 145.309 134.399 145.388 134.397 145.467C134.394 145.546 134.376 145.624 134.344 145.697C134.311 145.769 134.265 145.834 134.207 145.889C134.149 145.943 134.081 145.986 134.007 146.014C133.933 146.042 133.854 146.055 133.775 146.053L133.767 146.051ZM139.921 145.807C139.842 145.813 139.762 145.803 139.687 145.777C139.612 145.752 139.542 145.712 139.482 145.66C139.361 145.555 139.286 145.406 139.275 145.246C139.264 145.086 139.317 144.928 139.422 144.806C139.527 144.685 139.677 144.611 139.837 144.6C140.626 144.489 141.429 144.346 142.22 144.171C142.376 144.137 142.54 144.166 142.675 144.253C142.81 144.34 142.905 144.476 142.939 144.633C142.973 144.79 142.944 144.953 142.857 145.088C142.771 145.223 142.634 145.318 142.477 145.352C141.656 145.531 140.825 145.68 140.006 145.797C139.978 145.802 139.95 145.806 139.921 145.807ZM125.314 144.398C125.25 144.398 125.187 144.388 125.127 144.368C124.346 144.113 123.553 143.827 122.772 143.515C122.631 143.451 122.52 143.335 122.462 143.191C122.404 143.047 122.404 142.887 122.461 142.743C122.518 142.599 122.629 142.482 122.769 142.417C122.91 142.352 123.07 142.344 123.217 142.394C123.975 142.694 124.744 142.973 125.501 143.221C125.637 143.266 125.753 143.358 125.828 143.48C125.903 143.603 125.931 143.748 125.909 143.889C125.886 144.031 125.814 144.16 125.705 144.253C125.596 144.347 125.457 144.398 125.314 144.398ZM148.225 143.523C148.085 143.523 147.949 143.475 147.84 143.386C147.732 143.297 147.657 143.174 147.63 143.036C147.603 142.898 147.625 142.756 147.691 142.632C147.758 142.509 147.866 142.412 147.996 142.36C148.734 142.056 149.481 141.72 150.21 141.353C150.281 141.316 150.359 141.293 150.44 141.286C150.52 141.28 150.601 141.289 150.678 141.314C150.755 141.339 150.826 141.38 150.887 141.433C150.948 141.486 150.997 141.551 151.033 141.623C151.068 141.696 151.089 141.775 151.093 141.855C151.097 141.936 151.086 142.017 151.058 142.093C151.031 142.169 150.988 142.239 150.934 142.298C150.879 142.357 150.812 142.405 150.739 142.438C149.986 142.806 149.217 143.153 148.455 143.467C148.382 143.499 148.304 143.517 148.225 143.521V143.523ZM117.432 140.907C117.329 140.906 117.228 140.879 117.139 140.828C116.424 140.426 115.702 140.003 114.989 139.562C114.921 139.521 114.861 139.466 114.814 139.402C114.767 139.337 114.733 139.264 114.714 139.187C114.696 139.109 114.693 139.028 114.705 138.95C114.718 138.871 114.746 138.795 114.788 138.727C114.83 138.66 114.885 138.601 114.95 138.554C115.015 138.508 115.089 138.475 115.167 138.457C115.244 138.439 115.325 138.437 115.404 138.45C115.482 138.464 115.558 138.493 115.625 138.536C116.323 138.966 117.034 139.385 117.728 139.775C117.845 139.841 117.937 139.943 117.99 140.066C118.042 140.189 118.052 140.326 118.018 140.456C117.984 140.585 117.908 140.7 117.802 140.781C117.696 140.863 117.566 140.907 117.432 140.907ZM185.76 139.852C185.6 139.852 185.446 139.788 185.333 139.675C185.22 139.562 185.156 139.408 185.156 139.248C185.156 139.088 185.22 138.934 185.333 138.821C185.446 138.708 185.6 138.644 185.76 138.644C186.565 138.644 187.386 138.624 188.203 138.588C188.364 138.581 188.52 138.638 188.638 138.746C188.756 138.855 188.826 139.006 188.833 139.166C188.84 139.326 188.783 139.482 188.675 139.6C188.567 139.718 188.416 139.789 188.256 139.796C187.423 139.832 186.583 139.85 185.762 139.852H185.76ZM179.604 139.52C179.581 139.522 179.558 139.522 179.535 139.52C179.046 139.466 178.549 139.403 178.06 139.335C177.726 139.288 177.392 139.238 177.054 139.184C176.975 139.171 176.9 139.142 176.833 139.1C176.766 139.058 176.708 139.003 176.662 138.938C176.616 138.873 176.583 138.8 176.565 138.723C176.548 138.646 176.545 138.566 176.559 138.487C176.572 138.409 176.6 138.334 176.642 138.267C176.685 138.2 176.739 138.142 176.804 138.096C176.869 138.05 176.942 138.017 177.019 137.999C177.097 137.981 177.177 137.979 177.255 137.992C177.579 138.045 177.905 138.093 178.229 138.139C178.708 138.206 179.193 138.268 179.67 138.32C179.83 138.329 179.98 138.401 180.087 138.52C180.195 138.639 180.25 138.796 180.242 138.956C180.233 139.116 180.161 139.267 180.042 139.374C179.923 139.481 179.766 139.536 179.606 139.528L179.604 139.52ZM155.801 139.413C155.671 139.413 155.546 139.372 155.442 139.295C155.338 139.219 155.261 139.111 155.223 138.987C155.185 138.864 155.188 138.732 155.23 138.61C155.273 138.488 155.354 138.383 155.46 138.31C156.123 137.857 156.787 137.376 157.435 136.883C157.497 136.83 157.57 136.791 157.648 136.767C157.726 136.743 157.809 136.735 157.89 136.743C157.971 136.752 158.05 136.777 158.122 136.818C158.193 136.858 158.255 136.912 158.305 136.977C158.355 137.042 158.391 137.116 158.411 137.196C158.431 137.275 158.435 137.358 158.422 137.439C158.409 137.52 158.38 137.597 158.336 137.666C158.292 137.735 158.235 137.795 158.167 137.841C157.503 138.349 156.821 138.848 156.141 139.307C156.04 139.372 155.921 139.405 155.801 139.401V139.413ZM194.368 139.238C194.289 139.243 194.209 139.233 194.134 139.208C194.059 139.182 193.989 139.142 193.929 139.09C193.869 139.037 193.821 138.974 193.785 138.903C193.75 138.831 193.729 138.754 193.724 138.675C193.719 138.595 193.729 138.516 193.755 138.44C193.78 138.365 193.82 138.296 193.872 138.236C193.925 138.176 193.988 138.127 194.059 138.092C194.131 138.057 194.208 138.036 194.287 138.031C195.093 137.922 195.898 137.797 196.703 137.66C196.857 137.641 197.013 137.682 197.137 137.775C197.262 137.868 197.346 138.005 197.372 138.159C197.398 138.312 197.364 138.469 197.277 138.598C197.189 138.727 197.056 138.817 196.904 138.85C196.079 138.991 195.252 139.117 194.444 139.226C194.419 139.228 194.393 139.228 194.368 139.226V139.238ZM3.77498 139.16C3.68371 139.159 3.59365 139.139 3.51133 139.099C3.36769 139.029 3.2576 138.905 3.20517 138.754C3.15274 138.604 3.16223 138.438 3.23158 138.294C3.59183 137.55 3.96416 136.801 4.34253 136.08C4.37669 136.006 4.42555 135.94 4.48615 135.885C4.54676 135.83 4.61784 135.788 4.69511 135.762C4.77238 135.735 4.85422 135.725 4.93568 135.731C5.01714 135.737 5.09653 135.759 5.16904 135.797C5.24155 135.834 5.30567 135.886 5.35752 135.95C5.40937 136.013 5.44788 136.086 5.47071 136.164C5.49354 136.242 5.50022 136.325 5.49034 136.406C5.48046 136.487 5.45423 136.565 5.41324 136.636C5.04292 137.352 4.67461 138.089 4.31838 138.826C4.26668 138.924 4.189 139.005 4.09387 139.062C3.99873 139.119 3.8898 139.148 3.779 139.148L3.77498 139.16ZM171.137 137.805C171.079 137.805 171.021 137.796 170.965 137.779C170.173 137.546 169.374 137.288 168.589 137.012C168.514 136.986 168.445 136.945 168.386 136.892C168.327 136.839 168.279 136.775 168.245 136.703C168.211 136.631 168.191 136.554 168.187 136.475C168.182 136.395 168.194 136.316 168.22 136.241C168.247 136.167 168.288 136.098 168.341 136.039C168.394 135.98 168.458 135.932 168.529 135.898C168.601 135.863 168.679 135.844 168.758 135.839C168.837 135.835 168.916 135.847 168.991 135.873C169.756 136.141 170.537 136.392 171.31 136.622C171.449 136.662 171.57 136.752 171.648 136.875C171.727 136.997 171.759 137.144 171.738 137.288C171.717 137.432 171.645 137.563 171.535 137.658C171.425 137.754 171.284 137.806 171.139 137.805H171.137ZM202.839 137.604C202.692 137.603 202.55 137.548 202.441 137.45C202.331 137.353 202.261 137.218 202.243 137.072C202.226 136.926 202.262 136.779 202.346 136.658C202.429 136.537 202.554 136.45 202.696 136.414C203.471 136.225 204.27 136.012 205.071 135.811C205.148 135.788 205.229 135.782 205.308 135.791C205.388 135.8 205.465 135.825 205.535 135.864C205.605 135.903 205.666 135.956 205.715 136.019C205.765 136.083 205.801 136.155 205.822 136.233C205.843 136.31 205.848 136.391 205.838 136.47C205.827 136.55 205.801 136.626 205.76 136.695C205.72 136.765 205.666 136.825 205.602 136.873C205.538 136.921 205.465 136.956 205.387 136.976C204.582 137.195 203.777 137.403 202.984 137.596C202.938 137.6 202.892 137.6 202.847 137.594L202.839 137.604ZM110.221 136.149C110.09 136.149 109.962 136.106 109.857 136.026C109.211 135.535 108.553 135.02 107.899 134.49C107.782 134.387 107.71 134.243 107.697 134.088C107.684 133.933 107.732 133.779 107.83 133.659C107.927 133.538 108.068 133.459 108.222 133.439C108.376 133.42 108.532 133.46 108.657 133.552C109.302 134.072 109.95 134.581 110.586 135.064C110.686 135.14 110.76 135.246 110.798 135.367C110.835 135.488 110.833 135.617 110.793 135.737C110.753 135.857 110.676 135.961 110.573 136.035C110.471 136.109 110.348 136.149 110.221 136.149ZM211.139 135.215C210.995 135.215 210.857 135.163 210.748 135.07C210.639 134.977 210.567 134.848 210.544 134.706C210.522 134.564 210.55 134.419 210.625 134.297C210.7 134.174 210.815 134.082 210.952 134.038C211.709 133.79 212.491 133.524 213.28 133.253C213.432 133.199 213.598 133.208 213.743 133.277C213.888 133.347 213.999 133.471 214.052 133.622C214.106 133.773 214.097 133.94 214.027 134.084C213.958 134.229 213.834 134.34 213.683 134.394C212.878 134.669 212.097 134.935 211.334 135.185C211.273 135.201 211.21 135.208 211.147 135.205L211.139 135.215ZM163.106 134.661C163.013 134.661 162.922 134.64 162.839 134.599C162.094 134.231 161.351 133.84 160.625 133.436C160.556 133.397 160.495 133.345 160.445 133.283C160.396 133.221 160.36 133.149 160.338 133.073C160.317 132.996 160.31 132.917 160.32 132.838C160.329 132.759 160.354 132.683 160.392 132.614C160.431 132.544 160.483 132.483 160.545 132.434C160.608 132.385 160.679 132.349 160.755 132.327C160.832 132.306 160.911 132.299 160.99 132.308C161.069 132.318 161.145 132.342 161.214 132.381C161.492 132.535 161.773 132.688 162.056 132.84C162.617 132.285 163.173 131.707 163.708 131.125C163.818 131.015 163.966 130.951 164.122 130.948C164.278 130.944 164.429 131.001 164.544 131.106C164.659 131.211 164.729 131.357 164.739 131.512C164.749 131.668 164.698 131.821 164.598 131.94C164.139 132.442 163.664 132.947 163.189 133.422L163.378 133.516C163.5 133.577 163.598 133.677 163.657 133.8C163.715 133.923 163.73 134.062 163.699 134.195C163.668 134.328 163.593 134.446 163.486 134.531C163.379 134.615 163.247 134.662 163.11 134.661H163.106ZM219.27 132.301C219.129 132.301 218.992 132.252 218.884 132.161C218.775 132.071 218.702 131.946 218.676 131.807C218.65 131.669 218.673 131.525 218.742 131.402C218.811 131.279 218.921 131.184 219.052 131.133C219.82 130.837 220.584 130.538 221.345 130.236C221.419 130.203 221.499 130.186 221.58 130.184C221.661 130.183 221.742 130.199 221.817 130.229C221.892 130.26 221.96 130.306 222.017 130.363C222.074 130.421 222.119 130.489 222.149 130.565C222.179 130.64 222.194 130.721 222.192 130.802C222.19 130.883 222.172 130.963 222.139 131.037C222.105 131.111 222.057 131.177 221.998 131.232C221.938 131.287 221.868 131.329 221.792 131.357C221.027 131.66 220.259 131.961 219.487 132.26C219.42 132.282 219.349 132.292 219.278 132.291L219.27 132.301ZM7.91489 131.576C7.80253 131.576 7.69241 131.545 7.5969 131.486C7.52901 131.444 7.46994 131.39 7.42307 131.326C7.37619 131.262 7.34243 131.189 7.32374 131.112C7.30504 131.035 7.30177 130.954 7.31411 130.876C7.32645 130.797 7.35415 130.722 7.39564 130.654C7.83439 129.948 8.28722 129.246 8.74006 128.563C8.78393 128.497 8.84039 128.44 8.90621 128.396C8.97203 128.352 9.04592 128.321 9.12366 128.305C9.20141 128.29 9.28148 128.289 9.35932 128.305C9.43715 128.32 9.51122 128.35 9.5773 128.394C9.64337 128.438 9.70016 128.495 9.74441 128.56C9.78867 128.626 9.81953 128.7 9.83523 128.778C9.85092 128.856 9.85116 128.936 9.83591 129.013C9.82066 129.091 9.79023 129.165 9.74636 129.231C9.29956 129.902 8.85478 130.594 8.42207 131.29C8.36847 131.377 8.29387 131.448 8.2052 131.498C8.11653 131.548 8.01667 131.575 7.91489 131.576ZM103.616 130.57C103.467 130.568 103.323 130.512 103.213 130.411C102.634 129.882 102.038 129.33 101.402 128.728C101.285 128.619 101.217 128.467 101.212 128.307C101.206 128.147 101.265 127.991 101.375 127.874C101.485 127.757 101.636 127.689 101.796 127.683C101.957 127.678 102.112 127.737 102.229 127.847C102.867 128.451 103.457 128.994 104.041 129.519C104.131 129.601 104.194 129.708 104.222 129.826C104.25 129.945 104.242 130.069 104.198 130.182C104.155 130.296 104.078 130.393 103.978 130.463C103.878 130.532 103.76 130.569 103.638 130.57H103.616ZM155.73 130.167C155.602 130.167 155.477 130.126 155.374 130.051C154.704 129.562 154.038 129.044 153.394 128.529C153.332 128.479 153.28 128.418 153.243 128.348C153.205 128.278 153.181 128.202 153.172 128.123C153.164 128.044 153.171 127.965 153.194 127.888C153.216 127.812 153.253 127.741 153.303 127.68C153.353 127.618 153.414 127.567 153.484 127.529C153.554 127.491 153.63 127.467 153.709 127.459C153.788 127.45 153.867 127.457 153.944 127.48C154.02 127.502 154.091 127.539 154.152 127.589C154.78 128.098 155.43 128.595 156.084 129.074C156.188 129.149 156.265 129.255 156.304 129.376C156.344 129.498 156.344 129.628 156.305 129.75C156.265 129.871 156.189 129.977 156.085 130.052C155.982 130.127 155.858 130.167 155.73 130.167ZM227.288 129.052C227.148 129.053 227.013 129.005 226.905 128.916C226.796 128.828 226.722 128.705 226.695 128.568C226.667 128.431 226.688 128.288 226.753 128.165C226.819 128.041 226.926 127.945 227.055 127.891C227.813 127.575 228.568 127.255 229.325 126.933C229.398 126.901 229.477 126.883 229.557 126.882C229.637 126.88 229.716 126.894 229.791 126.924C229.865 126.953 229.933 126.997 229.99 127.053C230.048 127.108 230.093 127.175 230.125 127.249C230.156 127.322 230.172 127.401 230.173 127.481C230.173 127.561 230.158 127.641 230.128 127.715C230.097 127.789 230.052 127.856 229.996 127.912C229.939 127.969 229.872 128.014 229.798 128.044C229.041 128.366 228.282 128.687 227.522 129.006C227.448 129.037 227.368 129.053 227.288 129.052ZM168.057 127.348C167.93 127.348 167.806 127.308 167.703 127.233C167.639 127.186 167.584 127.128 167.543 127.06C167.501 126.993 167.473 126.918 167.461 126.839C167.448 126.761 167.451 126.681 167.47 126.604C167.488 126.527 167.522 126.454 167.568 126.39C168.041 125.738 168.506 125.061 168.953 124.377C169.046 124.256 169.181 124.174 169.332 124.148C169.482 124.123 169.637 124.155 169.765 124.239C169.892 124.323 169.983 124.452 170.02 124.601C170.056 124.749 170.034 124.906 169.959 125.039C169.502 125.736 169.025 126.426 168.55 127.094C168.494 127.173 168.42 127.237 168.334 127.281C168.248 127.325 168.152 127.348 168.055 127.348H168.057ZM235.218 125.629C235.079 125.629 234.945 125.581 234.838 125.494C234.73 125.407 234.656 125.286 234.627 125.151C234.599 125.015 234.617 124.874 234.68 124.751C234.743 124.628 234.846 124.53 234.972 124.474C235.724 124.14 236.473 123.804 237.22 123.467C237.366 123.401 237.533 123.396 237.683 123.452C237.833 123.509 237.954 123.622 238.02 123.768C238.086 123.914 238.092 124.081 238.035 124.231C237.979 124.381 237.865 124.502 237.719 124.568C236.968 124.906 236.216 125.242 235.463 125.575C235.386 125.611 235.301 125.629 235.216 125.629H235.218ZM97.3547 124.635C97.1986 124.635 97.0485 124.574 96.9361 124.466L95.159 122.755C95.0992 122.701 95.0508 122.635 95.0168 122.562C94.9828 122.489 94.9638 122.409 94.9609 122.329C94.9581 122.248 94.9714 122.168 95.0002 122.092C95.029 122.017 95.0726 121.948 95.1284 121.89C95.1843 121.831 95.2512 121.785 95.3254 121.753C95.3995 121.721 95.4793 121.704 95.56 121.704C95.6407 121.703 95.7208 121.719 95.7953 121.75C95.8699 121.78 95.9375 121.826 95.9942 121.883C96.598 122.453 97.1817 123.025 97.7754 123.596C97.8621 123.68 97.9219 123.787 97.947 123.905C97.972 124.023 97.9612 124.146 97.916 124.258C97.8707 124.369 97.7931 124.465 97.6931 124.532C97.5931 124.599 97.4752 124.635 97.3547 124.635ZM12.8941 124.524C12.7572 124.524 12.6245 124.477 12.5177 124.391C12.3933 124.291 12.3137 124.145 12.2964 123.987C12.279 123.828 12.3253 123.669 12.4251 123.544C12.9444 122.896 13.4797 122.254 14.0191 121.632C14.0702 121.569 14.1333 121.517 14.2048 121.48C14.2763 121.442 14.3546 121.419 14.4352 121.412C14.5157 121.405 14.5968 121.414 14.6737 121.439C14.7506 121.464 14.8217 121.504 14.8828 121.557C14.9439 121.61 14.9937 121.675 15.0293 121.748C15.0649 121.82 15.0855 121.899 15.09 121.98C15.0945 122.061 15.0827 122.141 15.0553 122.218C15.028 122.294 14.9857 122.363 14.9308 122.423C14.4015 123.027 13.8762 123.665 13.367 124.299C13.31 124.37 13.2376 124.427 13.1554 124.466C13.0731 124.505 12.9831 124.525 12.892 124.524H12.8941ZM149.235 124.508C149.154 124.508 149.073 124.492 148.998 124.46C148.923 124.428 148.855 124.381 148.799 124.323C148.223 123.719 147.656 123.101 147.114 122.477C147.009 122.356 146.957 122.198 146.968 122.038C146.98 121.878 147.054 121.73 147.176 121.625C147.297 121.52 147.455 121.467 147.614 121.479C147.774 121.491 147.923 121.565 148.028 121.686C148.555 122.29 149.107 122.894 149.67 123.485C149.725 123.543 149.769 123.61 149.798 123.684C149.826 123.758 149.84 123.837 149.839 123.917C149.837 123.996 149.82 124.075 149.788 124.147C149.756 124.22 149.71 124.286 149.652 124.341C149.539 124.448 149.389 124.508 149.233 124.508H149.235ZM243.073 122.034C242.935 122.035 242.801 121.989 242.694 121.903C242.586 121.817 242.511 121.697 242.481 121.562C242.451 121.428 242.467 121.287 242.528 121.164C242.589 121.04 242.69 120.941 242.815 120.883C243.557 120.533 244.295 120.181 245.029 119.827C245.101 119.792 245.178 119.773 245.258 119.768C245.337 119.764 245.416 119.776 245.491 119.802C245.566 119.828 245.635 119.869 245.694 119.922C245.753 119.976 245.801 120.04 245.835 120.111C245.869 120.183 245.889 120.261 245.893 120.34C245.898 120.419 245.886 120.499 245.86 120.573C245.833 120.648 245.792 120.717 245.739 120.776C245.686 120.835 245.622 120.883 245.55 120.917C244.807 121.272 244.063 121.625 243.318 121.976C243.241 122.013 243.157 122.033 243.071 122.034H243.073ZM172.545 119.982C172.442 119.981 172.341 119.955 172.251 119.904C172.161 119.854 172.085 119.781 172.031 119.693C171.977 119.605 171.947 119.505 171.943 119.402C171.939 119.298 171.961 119.196 172.008 119.104C172.374 118.382 172.729 117.641 173.065 116.902C173.096 116.828 173.141 116.76 173.199 116.703C173.257 116.646 173.326 116.602 173.401 116.572C173.476 116.543 173.557 116.528 173.638 116.53C173.719 116.532 173.798 116.551 173.872 116.584C173.946 116.618 174.012 116.666 174.067 116.725C174.121 116.785 174.164 116.855 174.191 116.931C174.218 117.007 174.23 117.088 174.225 117.169C174.22 117.25 174.199 117.329 174.164 117.401C173.821 118.156 173.459 118.913 173.085 119.649C173.034 119.749 172.957 119.833 172.862 119.892C172.767 119.951 172.657 119.982 172.545 119.982ZM91.0714 118.708C90.9225 118.707 90.7791 118.651 90.6689 118.551C90.043 117.983 89.4251 117.436 88.8334 116.92C88.7707 116.869 88.7189 116.806 88.6811 116.735C88.6433 116.663 88.6202 116.585 88.6133 116.504C88.6063 116.424 88.6156 116.343 88.6406 116.266C88.6656 116.189 88.7058 116.118 88.7588 116.057C88.8117 115.996 88.8764 115.946 88.9491 115.91C89.0217 115.875 89.1007 115.854 89.1814 115.849C89.2621 115.845 89.3429 115.857 89.419 115.884C89.4951 115.911 89.5649 115.954 89.6244 116.009C90.2281 116.53 90.848 117.083 91.48 117.655C91.5707 117.737 91.6345 117.844 91.6631 117.962C91.6917 118.081 91.6836 118.206 91.64 118.319C91.5965 118.433 91.5194 118.532 91.4189 118.601C91.3185 118.67 91.1995 118.707 91.0775 118.708H91.0714ZM250.835 118.269C250.699 118.269 250.566 118.224 250.459 118.139C250.352 118.055 250.277 117.936 250.245 117.803C250.214 117.671 250.229 117.531 250.287 117.408C250.345 117.284 250.443 117.184 250.566 117.124C251.3 116.76 252.034 116.392 252.768 116.021C252.839 115.982 252.917 115.958 252.997 115.95C253.077 115.942 253.159 115.95 253.236 115.974C253.313 115.998 253.385 116.037 253.446 116.09C253.508 116.142 253.559 116.206 253.595 116.278C253.632 116.35 253.653 116.429 253.659 116.509C253.665 116.59 253.654 116.671 253.628 116.747C253.601 116.824 253.56 116.894 253.506 116.954C253.452 117.015 253.386 117.063 253.313 117.098C252.579 117.469 251.841 117.839 251.099 118.206C251.017 118.247 250.927 118.268 250.835 118.269ZM18.7326 118.182C18.6113 118.183 18.4927 118.147 18.3923 118.079C18.2919 118.011 18.2142 117.914 18.1695 117.801C18.1247 117.689 18.115 117.565 18.1415 117.447C18.168 117.328 18.2295 117.221 18.318 117.138C18.9218 116.568 19.5477 116.007 20.1696 115.469C20.2914 115.369 20.4474 115.321 20.6043 115.334C20.7613 115.348 20.9068 115.422 21.0098 115.541C21.1127 115.661 21.165 115.815 21.1554 115.973C21.1459 116.13 21.0752 116.277 20.9585 116.383C20.3548 116.908 19.7389 117.46 19.1472 118.017C19.0372 118.121 18.8921 118.18 18.7407 118.182H18.7326ZM143.846 117.766C143.745 117.766 143.646 117.741 143.557 117.693C143.469 117.645 143.394 117.576 143.339 117.492C142.882 116.796 142.441 116.083 142.028 115.363C141.948 115.224 141.927 115.059 141.968 114.904C142.01 114.749 142.111 114.618 142.25 114.537C142.389 114.457 142.553 114.436 142.708 114.477C142.863 114.519 142.995 114.62 143.075 114.759C143.477 115.455 143.906 116.154 144.349 116.832C144.408 116.923 144.442 117.028 144.447 117.136C144.451 117.245 144.426 117.353 144.375 117.448C144.323 117.544 144.247 117.624 144.154 117.68C144.061 117.736 143.954 117.765 143.846 117.766ZM258.526 114.344C258.39 114.345 258.259 114.3 258.152 114.217C258.045 114.134 257.969 114.017 257.937 113.885C257.904 113.754 257.917 113.616 257.973 113.492C258.028 113.369 258.124 113.268 258.244 113.205C258.971 112.823 259.697 112.439 260.421 112.054C260.492 112.013 260.569 111.986 260.65 111.976C260.731 111.965 260.813 111.971 260.891 111.993C260.97 112.015 261.043 112.053 261.106 112.104C261.17 112.155 261.222 112.218 261.26 112.29C261.299 112.362 261.322 112.441 261.329 112.522C261.336 112.603 261.327 112.685 261.301 112.762C261.276 112.84 261.235 112.911 261.182 112.972C261.128 113.034 261.062 113.083 260.989 113.119C260.263 113.506 259.535 113.891 258.805 114.274C258.721 114.316 258.628 114.337 258.534 114.336L258.526 114.344ZM84.4359 113.189C84.3052 113.189 84.1781 113.147 84.0736 113.068C83.4115 112.571 82.7453 112.09 82.0932 111.637C82.0275 111.592 81.9714 111.534 81.9281 111.467C81.8848 111.4 81.855 111.325 81.8407 111.247C81.8263 111.168 81.8275 111.088 81.8442 111.01C81.861 110.932 81.8929 110.858 81.9382 110.792C81.9836 110.726 82.0414 110.67 82.1084 110.627C82.1754 110.584 82.2503 110.554 82.3288 110.539C82.4073 110.525 82.4878 110.526 82.5659 110.543C82.6439 110.56 82.7178 110.592 82.7835 110.637C83.4477 111.098 84.1259 111.589 84.7961 112.094C84.8975 112.17 84.9724 112.276 85.0102 112.397C85.048 112.518 85.0467 112.648 85.0067 112.768C84.9666 112.888 84.8897 112.993 84.7869 113.067C84.6841 113.141 84.5606 113.181 84.4339 113.181L84.4359 113.189ZM25.4527 112.772C25.3241 112.772 25.1991 112.73 25.0958 112.654C24.9925 112.577 24.9163 112.47 24.8783 112.347C24.8404 112.224 24.8426 112.092 24.8848 111.971C24.9269 111.849 25.0067 111.745 25.1125 111.672C25.7968 111.203 26.5012 110.744 27.2016 110.309C27.3377 110.227 27.5007 110.202 27.6552 110.239C27.8098 110.276 27.9434 110.373 28.0272 110.508C28.1109 110.643 28.138 110.806 28.1025 110.961C28.067 111.115 27.9718 111.25 27.8376 111.335C27.1513 111.76 26.465 112.209 25.7948 112.668C25.693 112.734 25.5738 112.767 25.4527 112.764V112.772ZM175.854 112.02C175.79 112.02 175.727 112.009 175.667 111.988C175.515 111.938 175.389 111.83 175.316 111.687C175.244 111.544 175.231 111.379 175.281 111.227C175.534 110.458 175.774 109.671 175.993 108.89C176.015 108.814 176.051 108.742 176.1 108.68C176.149 108.618 176.21 108.566 176.279 108.527C176.349 108.488 176.425 108.463 176.504 108.454C176.582 108.445 176.662 108.451 176.739 108.473C176.815 108.494 176.886 108.53 176.949 108.58C177.011 108.629 177.063 108.69 177.102 108.759C177.141 108.828 177.165 108.904 177.175 108.983C177.184 109.062 177.178 109.142 177.156 109.218C176.931 110.023 176.687 110.818 176.428 111.603C176.387 111.723 176.31 111.826 176.207 111.9C176.104 111.973 175.98 112.012 175.854 112.012V112.02ZM266.131 110.237C265.997 110.237 265.867 110.192 265.76 110.11C265.654 110.028 265.579 109.913 265.545 109.783C265.512 109.653 265.522 109.516 265.576 109.393C265.629 109.27 265.722 109.168 265.839 109.103C266.559 108.701 267.276 108.298 267.991 107.896C268.13 107.819 268.294 107.801 268.447 107.845C268.6 107.888 268.73 107.991 268.808 108.129C268.886 108.268 268.906 108.432 268.864 108.585C268.821 108.739 268.72 108.869 268.583 108.948C267.865 109.351 267.145 109.754 266.423 110.156C266.334 110.208 266.234 110.235 266.131 110.237ZM139.865 110.118C139.744 110.118 139.626 110.082 139.526 110.015C139.426 109.947 139.348 109.851 139.303 109.739C138.995 108.967 138.7 108.176 138.44 107.391C138.415 107.316 138.404 107.236 138.41 107.157C138.415 107.078 138.436 107.001 138.472 106.93C138.507 106.859 138.556 106.795 138.616 106.743C138.676 106.691 138.745 106.651 138.82 106.626C138.895 106.601 138.975 106.591 139.054 106.596C139.133 106.601 139.21 106.622 139.281 106.658C139.352 106.693 139.416 106.742 139.468 106.802C139.52 106.862 139.56 106.931 139.585 107.006C139.841 107.771 140.124 108.538 140.424 109.291C140.484 109.439 140.482 109.606 140.419 109.753C140.356 109.9 140.237 110.016 140.088 110.076C140.018 110.103 139.944 110.117 139.869 110.118H139.865ZM77.1483 108.578C77.0561 108.578 76.9652 108.557 76.8826 108.516C76.1661 108.162 75.4214 107.819 74.6687 107.509C74.5211 107.447 74.4044 107.329 74.3442 107.18C74.284 107.031 74.2853 106.865 74.3477 106.718C74.4102 106.57 74.5287 106.453 74.6772 106.393C74.8257 106.333 74.9921 106.334 75.1397 106.397C75.9125 106.725 76.6773 107.077 77.4159 107.441C77.5383 107.501 77.6366 107.602 77.6948 107.725C77.753 107.848 77.7676 107.988 77.7364 108.121C77.7051 108.254 77.6297 108.372 77.5225 108.457C77.4154 108.541 77.2827 108.587 77.1462 108.586L77.1483 108.578ZM32.9476 108.486C32.81 108.486 32.6765 108.439 32.5692 108.353C32.4618 108.267 32.3871 108.147 32.3573 108.013C32.3274 107.878 32.3444 107.738 32.4052 107.615C32.4661 107.491 32.5673 107.392 32.692 107.334C33.4427 106.984 34.2115 106.648 34.9783 106.328C35.0522 106.295 35.1321 106.277 35.2131 106.275C35.2942 106.273 35.3748 106.288 35.4501 106.318C35.5254 106.348 35.5939 106.393 35.6515 106.45C35.7091 106.507 35.7545 106.575 35.7852 106.65C35.8159 106.725 35.8312 106.805 35.8301 106.887C35.829 106.968 35.8117 107.048 35.779 107.122C35.7463 107.196 35.699 107.263 35.64 107.318C35.5809 107.374 35.5112 107.417 35.4352 107.445C34.6885 107.753 33.9358 108.081 33.2032 108.423C33.1218 108.463 33.0323 108.485 32.9415 108.486H32.9476ZM273.654 105.972C273.522 105.972 273.393 105.928 273.288 105.847C273.182 105.767 273.107 105.654 273.072 105.526C273.038 105.398 273.046 105.262 273.096 105.139C273.147 105.016 273.236 104.914 273.35 104.847C274.059 104.432 274.767 104.016 275.476 103.599C275.544 103.551 275.622 103.517 275.704 103.501C275.786 103.485 275.871 103.485 275.952 103.503C276.034 103.521 276.111 103.556 276.179 103.605C276.247 103.655 276.303 103.718 276.345 103.79C276.387 103.862 276.414 103.943 276.423 104.026C276.432 104.109 276.424 104.193 276.399 104.273C276.374 104.353 276.333 104.427 276.278 104.49C276.223 104.553 276.155 104.604 276.079 104.64C275.368 105.058 274.658 105.475 273.948 105.889C273.856 105.943 273.752 105.971 273.646 105.972H273.654ZM69.0777 105.521C69.0226 105.522 68.9677 105.514 68.9147 105.499C68.1399 105.284 67.3429 105.082 66.5519 104.895C66.4725 104.88 66.397 104.849 66.3298 104.804C66.2627 104.759 66.2053 104.7 66.161 104.633C66.1168 104.565 66.0866 104.489 66.0722 104.41C66.0578 104.33 66.0596 104.248 66.0774 104.169C66.0952 104.09 66.1287 104.016 66.1758 103.95C66.223 103.885 66.2828 103.829 66.3519 103.787C66.4209 103.745 66.4977 103.717 66.5777 103.705C66.6577 103.693 66.7393 103.697 66.8176 103.718C67.6226 103.901 68.4438 104.106 69.2327 104.322C69.3733 104.361 69.4949 104.449 69.5751 104.571C69.6553 104.693 69.6886 104.84 69.669 104.984C69.6494 105.129 69.5781 105.262 69.4683 105.358C69.3585 105.454 69.2176 105.507 69.0717 105.507L69.0777 105.521ZM41.0342 105.505C40.8885 105.504 40.7479 105.451 40.6385 105.355C40.5291 105.258 40.4581 105.126 40.4388 104.981C40.4194 104.837 40.4529 104.69 40.5331 104.569C40.6133 104.447 40.7348 104.359 40.8752 104.32C41.6802 104.1 42.4853 103.895 43.2903 103.716C43.3686 103.695 43.4502 103.691 43.5302 103.703C43.6102 103.715 43.687 103.743 43.756 103.785C43.8251 103.827 43.8849 103.883 43.9321 103.948C43.9792 104.014 44.0127 104.088 44.0305 104.167C44.0483 104.246 44.0501 104.328 44.0357 104.408C44.0214 104.487 43.9911 104.563 43.9469 104.631C43.9026 104.698 43.8452 104.756 43.7781 104.802C43.7109 104.847 43.6354 104.878 43.556 104.893C42.763 105.072 41.968 105.271 41.1892 105.485C41.1387 105.499 41.0866 105.506 41.0342 105.505ZM60.6007 103.917H60.5363C59.7312 103.832 58.9121 103.766 58.1051 103.716C58.0259 103.711 57.9484 103.691 57.8771 103.656C57.8057 103.622 57.7418 103.574 57.6891 103.514C57.6364 103.455 57.5959 103.386 57.5699 103.311C57.5439 103.236 57.5329 103.157 57.5375 103.078C57.5421 102.999 57.5623 102.921 57.5969 102.85C57.6314 102.778 57.6797 102.715 57.739 102.662C57.7982 102.609 57.8672 102.569 57.9421 102.543C58.017 102.517 58.0963 102.506 58.1755 102.51C59.0027 102.558 59.8399 102.627 60.6631 102.711C60.8232 102.72 60.9735 102.791 61.0809 102.91C61.1882 103.029 61.2439 103.186 61.2357 103.346C61.2274 103.507 61.1558 103.657 61.0368 103.764C60.9177 103.872 60.7608 103.927 60.6007 103.919V103.917ZM49.5133 103.917C49.3531 103.925 49.1963 103.87 49.0772 103.762C48.9581 103.655 48.8866 103.505 48.8783 103.344C48.87 103.184 48.9257 103.027 49.0331 102.908C49.1405 102.789 49.2908 102.718 49.4509 102.709C50.2761 102.625 51.1133 102.556 51.9385 102.508C52.0986 102.499 52.2558 102.554 52.3754 102.661C52.4951 102.768 52.5674 102.918 52.5765 103.078C52.5855 103.238 52.5306 103.395 52.4238 103.515C52.317 103.634 52.167 103.707 52.0069 103.716C51.2018 103.762 50.3807 103.828 49.5757 103.917H49.5133ZM177.929 103.633C177.895 103.636 177.861 103.636 177.826 103.633C177.748 103.62 177.673 103.592 177.606 103.549C177.539 103.507 177.481 103.452 177.435 103.388C177.389 103.323 177.356 103.25 177.338 103.173C177.32 103.095 177.318 103.015 177.331 102.937C177.468 102.132 177.587 101.327 177.688 100.522C177.708 100.362 177.79 100.216 177.918 100.117C177.981 100.068 178.053 100.032 178.13 100.011C178.207 99.9893 178.288 99.9835 178.367 99.9934C178.446 100.003 178.523 100.029 178.592 100.068C178.662 100.108 178.723 100.161 178.772 100.224C178.821 100.287 178.857 100.359 178.878 100.436C178.899 100.513 178.905 100.593 178.895 100.673C178.79 101.494 178.67 102.323 178.531 103.138C178.505 103.278 178.431 103.405 178.321 103.496C178.21 103.586 178.072 103.635 177.929 103.633ZM137.456 101.838C137.315 101.838 137.179 101.789 137.07 101.699C136.962 101.61 136.888 101.485 136.862 101.347C136.709 100.542 136.574 99.7006 136.46 98.8795C136.449 98.8008 136.454 98.7209 136.474 98.6442C136.495 98.5675 136.53 98.4956 136.578 98.4325C136.626 98.3694 136.686 98.3165 136.755 98.2766C136.823 98.2367 136.899 98.2108 136.978 98.2002C137.056 98.1896 137.136 98.1947 137.213 98.215C137.29 98.2353 137.362 98.2705 137.425 98.3187C137.488 98.3668 137.541 98.4269 137.581 98.4955C137.62 98.5641 137.646 98.6398 137.657 98.7185C137.764 99.5235 137.894 100.329 138.045 101.122C138.06 101.199 138.06 101.28 138.044 101.357C138.027 101.435 137.996 101.509 137.951 101.574C137.907 101.64 137.85 101.696 137.783 101.74C137.717 101.783 137.642 101.813 137.564 101.828C137.529 101.834 137.492 101.837 137.456 101.838ZM281.063 101.542C280.932 101.542 280.804 101.499 280.7 101.419C280.595 101.34 280.519 101.229 280.484 101.103C280.448 100.977 280.454 100.842 280.502 100.72C280.549 100.598 280.635 100.494 280.747 100.425C281.447 99.9971 282.146 99.5658 282.844 99.131C282.911 99.0882 282.986 99.0592 283.065 99.0457C283.144 99.0322 283.224 99.0344 283.302 99.0522C283.38 99.07 283.454 99.1031 283.519 99.1496C283.584 99.196 283.639 99.2549 283.681 99.3227C283.723 99.3906 283.751 99.4662 283.764 99.545C283.776 99.6238 283.773 99.7044 283.754 99.782C283.736 99.8597 283.702 99.9328 283.655 99.9973C283.608 100.062 283.548 100.116 283.48 100.157C282.781 100.592 282.08 101.024 281.377 101.454C281.282 101.511 281.173 101.542 281.063 101.542ZM288.378 96.9534C288.247 96.9542 288.12 96.9124 288.015 96.8343C287.91 96.7561 287.833 96.646 287.796 96.5204C287.759 96.3947 287.763 96.2605 287.809 96.1378C287.855 96.0152 287.94 95.9108 288.05 95.8405C288.743 95.3977 289.432 94.9515 290.119 94.5021C290.252 94.4296 290.408 94.4098 290.555 94.4467C290.702 94.4836 290.83 94.5744 290.913 94.7012C290.996 94.8279 291.028 94.9813 291.004 95.1308C290.979 95.2803 290.899 95.4151 290.779 95.5084C290.088 95.9578 289.397 96.4053 288.704 96.8508C288.608 96.9157 288.495 96.9513 288.378 96.9534ZM178.724 95.0414H178.714C178.556 95.0388 178.405 94.974 178.294 94.8611C178.182 94.7481 178.12 94.5961 178.12 94.4377C178.12 94.1197 178.12 93.8037 178.12 93.4857C178.12 92.9926 178.12 92.4915 178.1 91.9964C178.098 91.9171 178.112 91.8381 178.14 91.7641C178.168 91.69 178.211 91.6222 178.266 91.5647C178.32 91.5071 178.386 91.4609 178.458 91.4286C178.53 91.3963 178.609 91.3786 178.688 91.3765C178.767 91.3744 178.846 91.3879 178.92 91.4162C178.994 91.4446 179.062 91.4873 179.12 91.5419C179.177 91.5965 179.223 91.6619 179.256 91.7343C179.288 91.8068 179.306 91.8849 179.308 91.9642C179.322 92.4693 179.328 92.9705 179.328 93.4857C179.328 93.8097 179.328 94.1338 179.328 94.4578C179.323 94.6144 179.257 94.7629 179.144 94.8718C179.031 94.9807 178.881 95.0415 178.724 95.0414ZM136.651 93.2502C136.491 93.2502 136.337 93.1866 136.224 93.0734C136.111 92.9602 136.047 92.8066 136.047 92.6464C136.047 91.8173 136.071 90.976 136.115 90.1468C136.12 90.0675 136.139 89.9898 136.174 89.9182C136.208 89.8466 136.256 89.7824 136.315 89.7293C136.374 89.6762 136.443 89.6353 136.518 89.6089C136.593 89.5824 136.672 89.571 136.751 89.5752C136.831 89.5795 136.908 89.5993 136.98 89.6335C137.052 89.6678 137.116 89.7158 137.169 89.7748C137.222 89.8339 137.263 89.9028 137.289 89.9777C137.316 90.0526 137.327 90.1319 137.323 90.2112C137.279 91.0162 137.256 91.8374 137.256 92.6464C137.256 92.7259 137.241 92.8046 137.21 92.878C137.18 92.9514 137.135 93.018 137.079 93.0741C137.023 93.1302 136.956 93.1746 136.882 93.2048C136.809 93.2351 136.73 93.2505 136.651 93.2502ZM295.592 92.2017C295.463 92.2013 295.337 92.1597 295.234 92.0829C295.13 92.0061 295.054 91.8982 295.016 91.7749C294.978 91.6516 294.981 91.5194 295.024 91.3978C295.066 91.2761 295.147 91.1713 295.253 91.0988C295.934 90.6399 296.613 90.1783 297.292 89.7141C297.357 89.6651 297.432 89.6298 297.511 89.6104C297.59 89.591 297.673 89.5879 297.753 89.6012C297.834 89.6145 297.911 89.6439 297.979 89.6878C298.048 89.7317 298.107 89.789 298.153 89.8564C298.199 89.9238 298.231 89.9998 298.247 90.0798C298.263 90.1598 298.262 90.2422 298.245 90.322C298.229 90.4019 298.196 90.4774 298.149 90.5441C298.102 90.6109 298.042 90.6674 297.973 90.7103C297.294 91.1759 296.613 91.6388 295.93 92.099C295.83 92.1662 295.712 92.2019 295.592 92.2017ZM302.698 87.2929C302.57 87.2929 302.445 87.252 302.342 87.1763C302.238 87.1006 302.162 86.994 302.123 86.8718C302.084 86.7497 302.085 86.6184 302.126 86.4969C302.167 86.3754 302.245 86.27 302.35 86.1961C303.021 85.7238 303.692 85.2475 304.362 84.7671C304.493 84.6763 304.654 84.6406 304.81 84.6675C304.967 84.6945 305.106 84.7821 305.199 84.9113C305.291 85.0405 305.329 85.2009 305.304 85.3578C305.279 85.5146 305.193 85.6553 305.065 85.7493C304.394 86.2283 303.723 86.7059 303.052 87.1822C302.949 87.2554 302.825 87.2941 302.698 87.2929ZM178.207 86.4275C178.06 86.4289 177.918 86.3767 177.807 86.2808C177.695 86.1849 177.623 86.0517 177.603 85.9063C177.49 85.1012 177.36 84.2962 177.213 83.4911C177.185 83.3342 177.22 83.1727 177.311 83.0417C177.402 82.9107 177.541 82.821 177.697 82.792C177.854 82.7631 178.016 82.7973 178.148 82.8871C178.279 82.977 178.37 83.1153 178.4 83.2718C178.551 84.0768 178.684 84.912 178.803 85.7352C178.824 85.8937 178.782 86.0544 178.686 86.1819C178.589 86.3095 178.446 86.3935 178.287 86.4155L178.207 86.4275ZM137.458 84.6625C137.42 84.6654 137.383 84.6654 137.345 84.6625C137.267 84.6477 137.193 84.6178 137.126 84.5743C137.06 84.5308 137.003 84.4746 136.958 84.409C136.913 84.3434 136.882 84.2696 136.866 84.1919C136.85 84.1142 136.849 84.034 136.864 83.956C137.019 83.151 137.198 82.3178 137.395 81.5148C137.414 81.4377 137.448 81.3652 137.495 81.3012C137.542 81.2373 137.601 81.1832 137.669 81.1421C137.737 81.101 137.812 81.0736 137.89 81.0616C137.969 81.0496 138.049 81.0531 138.126 81.072C138.203 81.0909 138.276 81.1248 138.339 81.1717C138.403 81.2187 138.458 81.2777 138.499 81.3456C138.54 81.4134 138.567 81.4887 138.579 81.5671C138.591 81.6455 138.588 81.7255 138.569 81.8026C138.367 82.5855 138.2 83.3865 138.049 84.1815C138.021 84.3175 137.947 84.4396 137.839 84.5272C137.731 84.6148 137.597 84.6626 137.458 84.6625ZM176.347 78.0028C176.218 78.0024 176.093 77.9608 175.989 77.8841C175.886 77.8073 175.809 77.6994 175.772 77.5761C175.532 76.7972 175.272 76.0204 174.999 75.2616C174.968 75.186 174.953 75.1049 174.954 75.0233C174.956 74.9417 174.974 74.8612 175.007 74.7867C175.041 74.7122 175.089 74.6453 175.149 74.5899C175.209 74.5346 175.28 74.492 175.356 74.4648C175.433 74.4375 175.515 74.4262 175.597 74.4314C175.678 74.4367 175.758 74.4583 175.831 74.4952C175.903 74.5321 175.968 74.5833 176.02 74.6459C176.073 74.7084 176.112 74.781 176.136 74.8591C176.416 75.634 176.679 76.4309 176.925 77.2259C176.953 77.3164 176.959 77.4122 176.944 77.5055C176.928 77.5989 176.89 77.6873 176.834 77.7635C176.778 77.8397 176.704 77.9016 176.62 77.9442C176.535 77.9869 176.442 78.009 176.347 78.0088V78.0028ZM139.861 76.3806C139.784 76.3803 139.709 76.3659 139.637 76.3384C139.489 76.2789 139.37 76.1627 139.307 76.0155C139.244 75.8683 139.242 75.7021 139.301 75.5535C139.609 74.7806 139.941 74.0078 140.291 73.2571C140.324 73.1842 140.371 73.1186 140.43 73.064C140.488 73.0094 140.557 72.9669 140.631 72.939C140.706 72.9112 140.786 72.8984 140.866 72.9016C140.946 72.9048 141.024 72.9237 141.097 72.9574C141.169 72.9911 141.234 73.0389 141.288 73.0979C141.342 73.157 141.384 73.2261 141.41 73.3013C141.437 73.3766 141.449 73.4564 141.445 73.5362C141.441 73.616 141.421 73.6942 141.386 73.7663C141.046 74.4968 140.722 75.2496 140.422 76.0003C140.378 76.1126 140.3 76.2089 140.2 76.2767C140.1 76.3446 139.982 76.3808 139.861 76.3806ZM173.095 70.0228C172.986 70.0229 172.879 69.9936 172.786 69.938C172.692 69.8824 172.615 69.8025 172.564 69.7069C172.161 68.9843 171.758 68.2819 171.33 67.6238C171.261 67.4909 171.245 67.3374 171.283 67.1928C171.321 67.0483 171.411 66.9231 171.537 66.8414C171.662 66.7598 171.813 66.7275 171.961 66.7508C172.108 66.7742 172.242 66.8514 172.336 66.9677C172.779 67.652 173.212 68.3765 173.618 69.1333C173.694 69.2742 173.71 69.4394 173.664 69.5926C173.618 69.7458 173.513 69.8745 173.373 69.9504C173.287 69.9972 173.192 70.0221 173.095 70.0228ZM143.862 68.7549C143.752 68.7552 143.644 68.7254 143.549 68.6686C143.455 68.6118 143.378 68.5303 143.326 68.4329C143.275 68.3355 143.251 68.2258 143.257 68.1158C143.264 68.0059 143.3 67.8997 143.363 67.809C143.844 67.1146 144.355 66.4384 144.882 65.7964C144.984 65.6728 145.131 65.5948 145.291 65.5795C145.45 65.5642 145.609 65.6129 145.733 65.7149C145.856 65.8168 145.934 65.9637 145.949 66.1231C145.965 66.2826 145.916 66.4416 145.814 66.5652C145.307 67.179 144.808 67.8271 144.355 68.4933C144.299 68.5715 144.225 68.6351 144.139 68.6789C144.053 68.7227 143.958 68.7453 143.862 68.7448V68.7549ZM167.878 63.18C167.73 63.1802 167.586 63.1258 167.476 63.027C166.885 62.4971 166.257 62.0108 165.596 61.5719C165.525 61.5306 165.463 61.4752 165.414 61.4091C165.366 61.3431 165.331 61.2678 165.312 61.1879C165.293 61.1079 165.291 61.025 165.306 60.9442C165.32 60.8634 165.351 60.7863 165.396 60.7178C165.441 60.6493 165.5 60.5907 165.569 60.5457C165.637 60.5006 165.715 60.47 165.795 60.4558C165.876 60.4415 165.959 60.4439 166.039 60.4628C166.119 60.4817 166.194 60.5167 166.26 60.5656C166.967 61.0374 167.64 61.5594 168.273 62.1274C168.364 62.2089 168.429 62.3162 168.458 62.4352C168.487 62.5542 168.479 62.6791 168.435 62.7935C168.391 62.9079 168.314 63.0064 168.213 63.0758C168.112 63.1451 167.993 63.1822 167.87 63.182L167.878 63.18ZM149.803 62.5279C149.676 62.5274 149.552 62.4867 149.45 62.4118C149.347 62.3369 149.271 62.2315 149.231 62.1106C149.192 61.9898 149.192 61.8596 149.231 61.7387C149.27 61.6177 149.346 61.5122 149.449 61.4371C150.14 60.9355 150.863 60.4803 151.614 60.0746C151.684 60.0368 151.761 60.0131 151.84 60.0049C151.919 59.9967 151.998 60.0041 152.074 60.0267C152.15 60.0493 152.221 60.0867 152.283 60.1367C152.345 60.1867 152.396 60.2483 152.434 60.3181C152.471 60.3879 152.495 60.4644 152.503 60.5433C152.511 60.6222 152.504 60.702 152.481 60.7781C152.459 60.8542 152.421 60.925 152.371 60.9866C152.321 61.0483 152.26 61.0994 152.19 61.1372C151.492 61.5179 150.82 61.9442 150.177 62.4132C150.069 62.492 149.937 62.5323 149.803 62.5279ZM160.208 59.509H160.132L159.959 59.4889C159.238 59.4091 158.511 59.3936 157.787 59.4426C157.708 59.448 157.628 59.4378 157.553 59.4124C157.477 59.3871 157.408 59.3472 157.348 59.2949C157.288 59.2427 157.239 59.1792 157.204 59.108C157.168 59.0368 157.147 58.9594 157.142 58.8801C157.137 58.8008 157.147 58.7212 157.172 58.6459C157.197 58.5706 157.237 58.501 157.29 58.4411C157.342 58.3812 157.405 58.3322 157.477 58.2968C157.548 58.2615 157.625 58.2405 157.704 58.2351C158.501 58.1804 159.3 58.1972 160.093 58.2854L160.295 58.3075C160.374 58.3125 160.452 58.3331 160.523 58.3681C160.594 58.4031 160.658 58.4518 160.71 58.5114C160.763 58.571 160.803 58.6404 160.829 58.7156C160.855 58.7907 160.865 58.8702 160.86 58.9495C160.855 59.0288 160.835 59.1063 160.8 59.1777C160.765 59.249 160.716 59.3127 160.656 59.3653C160.597 59.4178 160.527 59.458 160.452 59.4837C160.377 59.5094 160.298 59.5201 160.218 59.5151L160.208 59.509Z" fill="#0F2F7E"/>
</svg>
