<svg width="15" height="16" viewBox="0 0 15 16" fill="none" xmlns="http://www.w3.org/2000/svg">
<path d="M5.28094 16C4.1022 16 2.99051 15.6284 2.06605 14.9253C1.89337 14.794 1.72733 14.6506 1.57235 14.4994C0.493239 13.4456 -0.0497971 12.0422 0.0435027 10.5475C0.114031 9.4178 0.574521 8.32874 1.34084 7.48093C2.35576 6.35812 3.75494 5.73968 5.28126 5.73968C5.54345 5.73968 5.80817 5.75906 6.06877 5.79718L6.4736 5.85656V9.40624L5.85023 9.2028C5.66869 9.14343 5.47988 9.11343 5.28885 9.11343C4.80622 9.11343 4.35427 9.3003 4.01618 9.63937C3.67966 9.97686 3.49844 10.4231 3.5054 10.8966C3.51457 11.5069 3.84001 12.06 4.37578 12.3769C4.62247 12.5225 4.90332 12.6078 5.18859 12.6234C5.41378 12.6356 5.63611 12.6066 5.84991 12.5369C6.58081 12.2984 7.07198 11.6284 7.07198 10.87L7.07514 7.18874V0H10.5086L10.5127 0.464375C10.5146 0.674687 10.5364 0.884999 10.5775 1.08875C10.7388 1.89 11.1936 2.60406 11.8581 3.09906C12.4479 3.53875 13.152 3.77093 13.8933 3.77093C13.9107 3.77093 13.9107 3.77093 14.0691 3.78187L14.5103 3.8125V6.68749V7.15624L14.3522 7.15593H14.0369C14.0344 7.15593 14.0318 7.15593 14.029 7.15593H13.8775C13.8769 7.15593 13.8759 7.15593 13.875 7.15593C12.9606 7.15593 12.1038 6.98374 11.2547 6.62968C11.0016 6.52406 10.7553 6.40343 10.5174 6.26874L10.5282 10.8878C10.5225 12.2541 9.97598 13.5356 8.98953 14.499C8.18905 15.2806 7.17888 15.78 6.06814 15.9425C5.80911 15.9806 5.54439 16 5.28094 16ZM5.28094 6.67718C4.02883 6.67718 2.88077 7.18437 2.04834 8.1053C1.42339 8.79687 1.04766 9.68468 0.9901 10.605C0.914195 11.8253 1.35761 12.9715 2.23905 13.8322C2.36651 13.9565 2.50282 14.0744 2.64451 14.1822C3.40166 14.7581 4.31347 15.0625 5.28094 15.0625C5.4979 15.0625 5.71581 15.0465 5.9293 15.0153C6.83921 14.8822 7.66689 14.4731 8.32283 13.8325C9.12869 13.0456 9.57495 11.9997 9.57969 10.8872L9.56483 4.4375L10.3311 5.02156C10.7268 5.32312 11.162 5.57374 11.6241 5.76656C12.2557 6.02999 12.8923 6.17624 13.5612 6.21093V4.69687C12.7345 4.63562 11.9536 4.34531 11.2866 3.84812C10.4358 3.21437 9.85358 2.29937 9.64674 1.27219C9.6246 1.16187 9.60657 1.05031 9.59329 0.937812H8.02364V7.18906L8.02048 10.8703C8.02048 12.0337 7.26775 13.0612 6.14721 13.4269C5.8205 13.5334 5.48051 13.5778 5.13641 13.5594C4.69806 13.5356 4.26666 13.4047 3.8884 13.1812C3.06831 12.6966 2.57019 11.8475 2.55627 10.9103C2.54552 10.1841 2.82352 9.49905 3.33967 8.98124C3.85741 8.46187 4.54941 8.17593 5.28822 8.17593C5.36728 8.17593 5.44572 8.17937 5.52415 8.18593V6.68374C5.44319 6.67937 5.36191 6.67718 5.28094 6.67718Z" fill="#091842"/>
</svg>
