<svg width="34" height="20" viewBox="0 0 34 20" fill="none" xmlns="http://www.w3.org/2000/svg">
<path fill-rule="evenodd" clip-rule="evenodd" d="M33.5851 0.498241C34.1383 1.05149 34.1383 1.94847 33.5851 2.50172L20.1267 15.96C19.5735 16.5132 18.6765 16.5132 18.1233 15.96L12.0417 9.87843L2.41841 19.5017C1.86516 20.0549 0.968174 20.0549 0.414932 19.5017C-0.138311 18.9485 -0.138311 18.0515 0.414932 17.4983L11.0399 6.87324C11.5932 6.32 12.4902 6.32 13.0434 6.87324L19.125 12.9549L31.5816 0.498241C32.1348 -0.0549962 33.0319 -0.0549962 33.5851 0.498241Z" fill="black"/>
<path fill-rule="evenodd" clip-rule="evenodd" d="M22.6667 1.49998C22.6667 0.717583 23.3009 0.083313 24.0833 0.083313H32.5833C33.3658 0.083313 34 0.717583 34 1.49998V9.99998C34 10.7824 33.3658 11.4166 32.5833 11.4166C31.8009 11.4166 31.1667 10.7824 31.1667 9.99998V2.91665H24.0833C23.3009 2.91665 22.6667 2.28238 22.6667 1.49998Z" fill="black"/>
</svg>
