<svg width="34" height="34" viewBox="0 0 34 34" fill="none" xmlns="http://www.w3.org/2000/svg">
<g clip-path="url(#clip0_730_800)">
<mask id="mask0_730_800" style="mask-type:luminance" maskUnits="userSpaceOnUse" x="0" y="0" width="34" height="34">
<path d="M0 0H34V34H0V0Z" fill="white"/>
</mask>
<g mask="url(#mask0_730_800)">
<path fill-rule="evenodd" clip-rule="evenodd" d="M33.5851 7.49826C34.1383 8.05151 34.1383 8.94848 33.5851 9.50173L20.1267 22.9601C19.5735 23.5133 18.6765 23.5133 18.1233 22.9601L12.0417 16.8784L2.41841 26.5017C1.86516 27.0549 0.968174 27.0549 0.414932 26.5017C-0.138311 25.9485 -0.138311 25.0515 0.414932 24.4983L11.0399 13.8733C11.5932 13.32 12.4902 13.32 13.0434 13.8733L19.125 19.9549L31.5816 7.49826C32.1348 6.94502 33.0319 6.94502 33.5851 7.49826Z" fill="white"/>
<path fill-rule="evenodd" clip-rule="evenodd" d="M22.6667 8.49999C22.6667 7.7176 23.301 7.08333 24.0834 7.08333H32.5834C33.3658 7.08333 34.0001 7.7176 34.0001 8.49999V17C34.0001 17.7824 33.3658 18.4167 32.5834 18.4167C31.801 18.4167 31.1667 17.7824 31.1667 17V9.91666H24.0834C23.301 9.91666 22.6667 9.28239 22.6667 8.49999Z" fill="white"/>
</g>
</g>
<defs>
<clipPath id="clip0_730_800">
<rect width="34" height="34" fill="white"/>
</clipPath>
</defs>
</svg>
