<svg width="31" height="24" viewBox="0 0 31 24" fill="none" xmlns="http://www.w3.org/2000/svg">
<path d="M25.4713 7.95192C24.0583 2.32327 18.3501 -1.09423 12.7215 0.318689C8.3228 1.42289 5.12889 5.22458 4.79981 9.74771C1.67658 10.2628 -0.437792 13.2121 0.0772631 16.3354C0.535123 19.112 2.94102 21.1454 5.75505 21.1342H10.5313V19.2237H5.75505C3.6448 19.2237 1.93408 17.513 1.93408 15.4028C1.93408 13.2925 3.6448 11.5818 5.75505 11.5818C6.28264 11.5818 6.71029 11.1541 6.71029 10.6265C6.70551 5.87844 10.5508 2.02547 15.2989 2.02075C19.4091 2.01663 22.9472 4.92236 23.7423 8.95486C23.8208 9.3575 24.1475 9.66509 24.5542 9.71906C27.1657 10.0909 28.9812 12.5094 28.6094 15.1209C28.2755 17.4659 26.2733 19.2119 23.9047 19.2237H20.0837V21.1342H23.9047C27.5976 21.1231 30.5823 18.1202 30.5711 14.4273C30.5618 11.3532 28.4576 8.68143 25.4713 7.95192Z" fill="#091941" fill-opacity="0.5"/>
<path d="M14.6276 11.8589L10.8066 15.6798L12.1535 17.0267L14.3506 14.8392V24H16.2611V14.8392L18.4486 17.0267L19.7955 15.6798L15.9745 11.8589C15.6019 11.4885 15.0002 11.4885 14.6276 11.8589Z" fill="#091941" fill-opacity="0.5"/>
</svg>
