<svg width="14" height="15" viewBox="0 0 14 15" fill="none" xmlns="http://www.w3.org/2000/svg">
<path d="M4.05358 2.59114V0.575824C4.05358 0.259118 3.79446 0 3.4778 0C3.16114 0 2.90198 0.259118 2.90198 0.575824V2.59114C2.90198 2.90784 3.1611 3.16696 3.4778 3.16696C3.79451 3.16696 4.05358 2.90784 4.05358 2.59114Z" fill="#091842"/>
<path d="M10.9618 2.59114V0.575824C10.9618 0.259118 10.7027 0 10.386 0C10.0693 0 9.81018 0.259118 9.81018 0.575824V2.59114C9.81018 2.90784 10.0693 3.16696 10.386 3.16696C10.7027 3.16696 10.9618 2.90784 10.9618 2.59114Z" fill="#091842"/>
<path d="M13.8642 13.5096V6.046H0V13.5096C0 14.3328 0.667218 15 1.49039 15H12.3738C13.197 15 13.8642 14.3328 13.8642 13.5096Z" fill="#091842"/>
<path d="M9.23597 2.59113V1.72742H4.62952V2.59113C4.62952 3.22742 4.11416 3.74273 3.47792 3.74273C2.84168 3.74273 2.32627 3.22737 2.32627 2.59113V1.72742H1.50864C0.688129 1.72742 0.0230713 2.39247 0.0230713 3.21299V5.47016H13.8425V3.21299C13.8425 2.39247 13.1774 1.72742 12.3569 1.72742H11.5393V2.59113C11.5393 3.22742 11.0239 3.74273 10.3877 3.74273C9.75142 3.74273 9.23597 3.22737 9.23597 2.59113Z" fill="#091842"/>
</svg>
