<svg width="17" height="16" viewBox="0 0 17 16" fill="none" xmlns="http://www.w3.org/2000/svg">
<path d="M16.2753 4.70406C16.2374 3.85391 16.0982 3.26945 15.8989 2.763C15.6933 2.22542 15.377 1.74412 14.9625 1.34402C14.5576 0.937686 14.0673 0.62195 13.5295 0.421959C13.014 0.22502 12.4255 0.0875418 11.5651 0.0500587C10.6983 0.00940127 10.4231 0 8.2246 0C6.02609 0 5.7509 0.00940127 4.88728 0.0468843C4.02688 0.0843673 3.43536 0.221968 2.92293 0.418784C2.37874 0.62195 1.89163 0.934512 1.4867 1.34402C1.07547 1.74412 0.756043 2.22859 0.553515 2.75995C0.3542 3.26945 0.215063 3.85074 0.177128 4.70088C0.13598 5.55738 0.126465 5.82928 0.126465 8.00159C0.126465 10.1739 0.13598 10.4458 0.173915 11.2991C0.21185 12.1493 0.351111 12.7337 0.550426 13.2402C0.756043 13.7778 1.07547 14.2591 1.4867 14.6592C1.89163 15.0655 2.38195 15.3812 2.91971 15.5812C3.43536 15.7782 4.02367 15.9156 4.8842 15.9531C5.74769 15.9907 6.023 16 8.22151 16C10.42 16 10.6952 15.9907 11.5588 15.9531C12.4192 15.9156 13.0108 15.7782 13.5232 15.5812C14.6115 15.1655 15.4719 14.3153 15.8926 13.2402C16.0918 12.7307 16.2311 12.1493 16.269 11.2991C16.3069 10.4458 16.3164 10.1739 16.3164 8.00159C16.3164 5.82928 16.3132 5.55738 16.2753 4.70406ZM14.8171 11.2366C14.7822 12.018 14.6494 12.44 14.5387 12.7213C14.2666 13.4183 13.7067 13.9715 13.0012 14.2404C12.7165 14.3498 12.2864 14.481 11.4987 14.5153C10.6446 14.5529 10.3884 14.5622 8.22782 14.5622C6.06723 14.5622 5.80786 14.5529 4.95685 14.5153C4.16602 14.481 3.73897 14.3498 3.45427 14.2404C3.10321 14.1122 2.78367 13.909 2.5243 13.6433C2.25541 13.3839 2.0498 13.0713 1.92005 12.7244C1.80933 12.4431 1.6765 12.018 1.64178 11.2398C1.60372 10.3959 1.59433 10.1426 1.59433 8.00781C1.59433 5.87299 1.60372 5.61671 1.64178 4.77597C1.6765 3.99457 1.80933 3.57261 1.92005 3.2913C2.0498 2.94431 2.25541 2.6287 2.52751 2.3723C2.78997 2.10662 3.1063 1.90345 3.45748 1.77538C3.74218 1.66598 4.17244 1.53473 4.96007 1.5003C5.81417 1.46281 6.07045 1.45341 8.23091 1.45341C10.3947 1.45341 10.6509 1.46281 11.5019 1.5003C12.2927 1.53473 12.7198 1.66598 13.0045 1.77538C13.3555 1.90345 13.6751 2.10662 13.9344 2.3723C14.2033 2.63175 14.4089 2.94431 14.5387 3.2913C14.6494 3.57261 14.7822 3.99762 14.8171 4.77597C14.855 5.61989 14.8645 5.87299 14.8645 8.00781C14.8645 10.1426 14.855 10.3927 14.8171 11.2366Z" fill="#091842"/>
<path d="M8.22473 3.89138C5.92822 3.89138 4.06494 5.73232 4.06494 8.00157C4.06494 10.2708 5.92822 12.1118 8.22473 12.1118C10.5214 12.1118 12.3845 10.2708 12.3845 8.00157C12.3845 5.73232 10.5214 3.89138 8.22473 3.89138ZM8.22473 10.6677C6.73487 10.6677 5.52638 9.47379 5.52638 8.00157C5.52638 6.52935 6.73487 5.33539 8.22473 5.33539C9.71471 5.33539 10.9231 6.52935 10.9231 8.00157C10.9231 9.47379 9.71471 10.6677 8.22473 10.6677Z" fill="#091842"/>
<path d="M13.52 3.72889C13.52 4.25878 13.0852 4.68843 12.5488 4.68843C12.0125 4.68843 11.5776 4.25878 11.5776 3.72889C11.5776 3.19888 12.0125 2.76935 12.5488 2.76935C13.0852 2.76935 13.52 3.19888 13.52 3.72889Z" fill="#091842"/>
</svg>
