<svg width="20" height="14" viewBox="0 0 20 14" fill="none" xmlns="http://www.w3.org/2000/svg">
<path d="M19.6042 2.435C19.3829 1.62191 18.7341 0.980958 17.9113 0.762017C16.4082 0.355644 10.3955 0.355644 10.3955 0.355644C10.3955 0.355644 4.38314 0.355644 2.88001 0.74661C2.07305 0.965319 1.40842 1.62203 1.18707 2.435C0.791504 3.9201 0.791504 6.99998 0.791504 6.99998C0.791504 6.99998 0.791504 10.0954 1.18707 11.565C1.40865 12.3779 2.05722 13.0189 2.88013 13.2378C4.39897 13.6443 10.3958 13.6443 10.3958 13.6443C10.3958 13.6443 16.4082 13.6443 17.9113 13.2533C18.7342 13.0345 19.3829 12.3936 19.6045 11.5806C19.9999 10.0954 19.9999 7.01562 19.9999 7.01562C19.9999 7.01562 20.0157 3.9201 19.6042 2.435ZM8.48125 9.84529V4.15467L13.481 6.99998L8.48125 9.84529Z" fill="#091842"/>
</svg>
